<svg width="346" height="60" viewBox="0 0 346 60" fill="none" xmlns="http://www.w3.org/2000/svg">
<g clip-path="url(#clip0_270_454)">
<path d="M23.3978 31.5354H5.26536V53.682H0.815674V27.1023H23.3978V31.5354Z" fill="#C52727" stroke="#C52727" stroke-width="0.585987" stroke-miterlimit="10"/>
<path d="M62.9993 53.7194V27.1023H89.3266V44.8345H67.3933V53.7194H62.9993ZM67.3933 31.5354V40.4202H84.9881V31.5354H67.3933Z" fill="#C52727" stroke="#C52727" stroke-width="0.585987" stroke-miterlimit="10"/>
<path d="M128.818 27.1023H133.194V49.2302H139.776V27.1023H144.188V49.2302H150.77V27.1023H155.164V49.2302H159.614V58.4143H155.22V53.682H128.818V27.1023Z" fill="#C52727" stroke="#C52727" stroke-width="0.585987" stroke-miterlimit="10"/>
<path d="M169.94 27.1023V47.0604L187.48 27.1023H191.874V53.682H187.48V33.8922L169.94 53.682H165.546V27.1023H169.94Z" fill="#C52727" stroke="#C52727" stroke-width="0.585987" stroke-miterlimit="10"/>
<path d="M202.943 27.1021V47.0602L220.482 27.1021H224.895V53.6818H220.482V33.892L202.943 53.6818H198.549V27.1021H202.943ZM202.832 20.1064H220.482V24.446H202.832V20.1064Z" fill="#C52727" stroke="#C52727" stroke-width="0.585987" stroke-miterlimit="10"/>
<path d="M252.482 27.084H278.865V31.5171H267.871V53.6637H263.477V31.5171H252.482V27.084Z" fill="#C52727" stroke="#C52727" stroke-width="0.585987" stroke-miterlimit="10"/>
<path d="M285.374 27.084H289.972L293.68 40.3645H303.951L307.289 27.084H311.887L304.971 53.6637H292.642L291.474 49.2119H301.523L302.728 44.8162H290.38L285.374 27.084Z" fill="#C52727" stroke="#C52727" stroke-width="0.585987" stroke-miterlimit="10"/>
<path d="M318.487 53.7011V27.084H344.832V44.8162H322.899V53.7011H318.487ZM322.899 31.5171V40.4206H340.475V31.5171H322.899Z" fill="#C52727" stroke="#C52727" stroke-width="0.585987" stroke-miterlimit="10"/>
<path d="M95.0752 53.9637V40.4213H99.5805V26.8416H121.94V53.9637H117.435V44.9292H99.5805V53.9637H95.0752ZM104.086 40.4213H117.435V31.3868H104.086V40.4213Z" fill="#C52727" stroke="#C52727" stroke-width="0.585987" stroke-miterlimit="10"/>
<path d="M52.8774 38.2693C52.9402 39.8626 52.6834 41.4522 52.1224 42.9428C51.5613 44.4335 50.7077 45.7944 49.6125 46.9441C48.5174 48.0938 47.2034 49.0084 45.7493 49.6332C44.2952 50.258 42.7311 50.58 41.1506 50.58C39.5701 50.58 38.006 50.258 36.5519 49.6332C35.0978 49.0084 33.7838 48.0938 32.6887 46.9441C31.5936 45.7944 30.7399 44.4335 30.1789 42.9428C29.6178 41.4522 29.361 39.8626 29.4238 38.2693C29.4238 38.2693 34.6707 38.0823 41.1413 38.0823C47.6119 38.0823 52.8774 38.2693 52.8774 38.2693Z" fill="#C52727" stroke="#C52727" stroke-width="1.46826" stroke-miterlimit="10"/>
<path d="M54.5269 53.0851L45.7017 54.8808L42.8464 41.1514L51.6902 39.3557L54.5269 53.0851Z" fill="#C52727" stroke="#C52727" stroke-width="1.46826" stroke-miterlimit="10"/>
<path d="M54.9532 31.2746C54.6184 28.7178 53.9964 26.2076 53.0991 23.7926L50.1512 14.6833C48.668 17.0776 48.9832 20.6502 49.0203 23.8301C49.0573 27.0099 48.3713 30.8818 46.1465 31.6487C47.8089 25.2457 46.9935 18.4444 43.866 12.6258C42.6128 10.826 41.4674 8.95219 40.4361 7.01434C39.9125 5.92658 39.6221 4.7397 39.5838 3.53109C39.5454 2.32249 39.76 1.11931 40.2136 0C38.1556 2.31941 37.7477 6.71506 38.1185 10.456C38.4893 14.197 39.5276 17.8071 39.6017 21.5855C39.6759 25.3639 38.4522 29.5912 35.8937 30.807C36.8822 24.5936 35.9432 18.2239 33.2053 12.5697C34.5031 17.5265 32.2968 22.8013 30.2574 27.253C28.218 31.7048 26.1785 37.2041 27.7915 41.9925C28.2195 43.3265 28.8445 44.5877 29.6456 45.7335C30.671 47.606 32.218 49.1343 34.0953 50.1292C34.4364 50.3822 34.8193 50.5722 35.2262 50.6903C37.1027 51.4918 39.1214 51.8991 41.1591 51.8874C43.1826 51.8944 45.187 51.4937 47.055 50.709C48.4687 50.2304 49.7646 49.4524 50.8557 48.427C54.6194 45.0788 55.4908 37.522 54.9532 31.2746Z" fill="#C52727"/>
<path d="M50.0961 33.9668H43.0508V41.0747H50.0961V33.9668Z" fill="black"/>
</g>
<defs>
<clipPath id="clip0_270_454">
<rect width="345.667" height="59.2571" fill="white"/>
</clipPath>
</defs>
</svg>
